# xmcd
#
# Track frame offsets:
#	150
#	15141
#	25138
#	41088
#	61028
#	82666
#	96175
#	116884
#	128195
#	142961
#	157351
#	173928
#	186029
#
# Disc length: 2728 seconds
#
# Revision: 0
# Processed by: cddbd v1.5.2PL0 Copyright (c) Steve Scherf et al.
# Submitted via: audiograbber 1.83.01
#
DISCID=a10aa60d
DTITLE=John Travolta and Olivia Newton John - This Christmas
DYEAR=2012
DGENRE=Christmas
TTITLE0=Baby It's Cold Outside
TTITLE1=Rockin' Around The Christmas Tree (featuring Kenny G)
TTITLE2=I'll Be Home For Christmas (featuring Barbra Streisand)
TTITLE3=This Christmas (featuring Chick Corea)
TTITLE4=Silent Night (featuring Olivia Newton-John)
TTITLE5=The Christmas Waltz (featuring John Travolta)
TTITLE6=Have Yourself A Merry Little Christmas (featuring Cliff Richard)
TTITLE7=Winter Wonderland (featuring Tony Bennett and The Count Basie Orchestra
TTITLE7=)
TTITLE8=White Christmas
TTITLE9=I Think You Might Like It
TTITLE10=The Christmas Song
TTITLE11=Deck The Halls (featuring James Taylor)
TTITLE12=Auld Lang Syne - Christmas Time Is Here (Medley)
EXTD=
EXTT0=
EXTT1=
EXTT2=
EXTT3=
EXTT4=
EXTT5=
EXTT6=
EXTT7=
EXTT8=
EXTT9=
EXTT10=
EXTT11=
EXTT12=
PLAYORDER=
